<svg id="SvgjsSvg1013" width="288" height="288" xmlns="http://www.w3.org/2000/svg" version="1.1" xmlns:xlink="http://www.w3.org/1999/xlink" xmlns:svgjs="http://svgjs.com/svgjs"><defs id="SvgjsDefs1014"></defs><g id="SvgjsG1015"><svg xmlns="http://www.w3.org/2000/svg" width="288" height="288" version="1.0" viewBox="0 0 640 640"><g transform="matrix(.1 0 0 -.1 0 640)" fill="#005f41" class="color000 svgShape"><path d="M0 4054 l0 -2346 30 6 c31 6 137 -17 174 -38 37 -20 107 -90 121-121 37 -82 50 -184 27 -207 -7 -7 -12 -20 -12 -29 0 -39 -51 -110 -103 -145
-62 -42 -104 -56 -174 -57 l-63 -2 0 -557 0 -558 3200 0 3200 0 0 3200 0 3200
-3200 0 -3200 0 0 -2346z m3233 2104 c48 -6 90 -15 93 -19 3 -5 14 -9 25 -9
24 0 184 -77 200 -96 6 -8 16 -14 22 -14 5 0 19 -9 31 -21 12 -11 41 -36 66
-56 52 -40 138 -125 552 -540 164 -164 366 -365 448 -448 221 -220 360 -366
360 -380 0 -6 1 -8 50 -65 16 -19 30 -42 30 -52 0 -9 4 -18 8 -20 4 -1 26 -43
47 -93 l40 -90 3 -159 c3 -151 2 -163 -23 -235 -29 -83 -46 -120 -75 -166 -11
-16 -23 -37 -27 -45 -18 -38 -184 -205 -258 -260 -64 -47 -214 -140 -226 -140
-5 0 -9 -4 -9 -10 0 -5 -7 -10 -16 -10 -9 0 -43 -18 -76 -40 -33 -22 -64 -40
-69 -40 -5 0 -9 -4 -9 -10 0 -5 -9 -10 -19 -10 -11 0 -22 -4 -25 -9 -3 -5 -24
-18 -45 -29 -70 -37 -86 -47 -94 -59 -4 -7 -15 -13 -24 -13 -9 0 -30 -10 -47
-23 -17 -13 -57 -36 -89 -53 -32 -16 -67 -33 -78 -39 -10 -5 -19 -13 -19 -17
0 -4 -19 -16 -42 -28 -24 -11 -65 -33 -93 -50 -27 -16 -68 -38 -90 -50 -93
-49 -122 -66 -150 -86 -17 -12 -34 -23 -40 -25 -9 -3 -96 -54 -160 -92 -112
-67 -145 -86 -175 -100 -42 -21 -64 -34 -107 -64 -17 -13 -39 -23 -47 -23 -9
0 -16 -3 -16 -7 0 -9 -36 -31 -115 -72 -28 -14 -64 -35 -80 -47 -17 -11 -46
-28 -65 -38 -19 -9 -44 -22 -55 -29 -125 -77 -180 -107 -199 -107 -14 0 -1386
1367 -1386 1380 0 18 44 110 52 110 4 0 8 8 8 17 0 9 6 24 14 32 14 16 34 51
92 161 16 30 32 57 35 60 3 3 9 12 13 20 10 22 173 315 201 362 6 9 26 47 45
85 19 37 38 70 41 73 3 3 21 32 39 65 18 33 36 64 41 69 5 6 9 18 9 28 0 10 3
18 8 18 8 0 42 57 42 71 0 6 11 25 25 43 14 18 25 36 25 40 0 3 11 23 24 44
12 20 37 64 55 97 18 33 40 74 50 90 10 17 33 59 53 95 43 80 175 314 199 355
10 17 26 46 35 65 10 19 39 70 66 113 26 43 48 85 48 93 0 8 4 14 9 14 5 0 16
17 24 38 9 20 27 46 41 56 14 10 26 27 26 37 0 11 7 19 15 19 8 0 15 5 15 11
0 19 154 164 220 206 57 36 125 71 195 98 25 10 150 31 190 33 17 0 70 -4 118
-10z m-973 -4368 c-1 -18 -24 -50 -37 -50 -5 0 -16 -11 -23 -25 -7 -14 -19
-25 -27 -25 -7 0 -13 -4 -13 -9 0 -4 -19 -26 -41 -47 -23 -22 -53 -52 -68 -68
-14 -16 -37 -39 -50 -50 -13 -12 -35 -33 -49 -48 -14 -16 -31 -28 -38 -28 -7
0 -17 -6 -21 -13 -4 -6 -20 -18 -35 -25 -16 -6 -40 -18 -55 -24 -14 -7 -55
-12 -91 -11 -52 1 -77 8 -137 38 -81 41 -175 118 -175 142 0 9 11 31 25 49 20
27 25 44 25 93 0 44 -5 66 -17 80 -10 11 -27 31 -38 45 -13 17 -34 29 -58 32
-20 4 -40 10 -42 15 -5 7 -95 -18 -105 -30 -3 -3 -16 -12 -29 -19 -22 -13 -28
-8 -138 100 -63 62 -119 121 -124 131 -8 13 -3 26 17 52 23 30 26 45 27 101 0
37 -5 69 -9 73 -5 3 -17 18 -27 33 -16 26 -94 68 -126 68 -9 0 -43 -14 -75
-30 -32 -17 -64 -30 -70 -30 -10 0 -34 24 -94 95 -36 43 -78 136 -85 189 -13
92 27 186 118 282 146 154 273 281 290 291 18 11 78 -47 707 -675 378 -378
688 -694 688 -702z m-1745 -1090 c99 -50 117 -67 153 -139 23 -48 27 -69 27
-141 0 -98 -20 -146 -89 -212 -61 -59 -110 -78 -200 -78 -68 0 -87 4 -143 32
-41 20 -68 40 -74 55 -5 13 -12 23 -16 23 -8 0 -18 16 -48 79 -22 45 -22 173
-1 203 9 12 16 28 16 35 0 18 49 76 96 113 63 51 207 66 279 30z" fill="#005f41" class="color000 svgShape"></path><path d="M3005 5730 c-32 -16 -66 -37 -75 -45 -9 -8 -22 -15 -28 -15 -7 0 -12
-3 -12 -8 0 -4 -22 -31 -50 -59 -27 -28 -50 -55 -50 -58 0 -3 -11 -21 -25 -39
-14 -18 -25 -36 -25 -40 0 -4 -11 -22 -24 -39 -13 -18 -37 -59 -52 -92 -16
-33 -45 -88 -66 -122 -21 -35 -38 -65 -38 -68 0 -2 -15 -28 -33 -57 -18 -29
-42 -72 -52 -95 -11 -24 -23 -43 -27 -43 -5 0 -8 -6 -8 -14 0 -7 -7 -19 -15
-26 -8 -7 -15 -21 -15 -31 0 -11 -4 -19 -10 -19 -5 0 -10 -6 -10 -14 0 -7 -7
-19 -15 -26 -8 -7 -15 -19 -15 -28 0 -8 -6 -23 -14 -31 -8 -9 -30 -45 -49 -81
-19 -36 -44 -81 -55 -100 -27 -45 -47 -82 -83 -150 -29 -54 -38 -72 -59 -107
-6 -10 -13 -25 -17 -33 -4 -8 -9 -17 -12 -20 -13 -11 -41 -69 -41 -84 0 -15
122 -16 1363 -17 1309 -1 1388 -1 1395 6 6 5 -47 107 -81 155 -28 41 -1197
1217 -1295 1302 -23 21 -56 45 -72 53 -17 9 -30 19 -30 23 0 18 -128 52 -198
52 -34 0 -66 -9 -107 -30z" fill="#005f41" class="color000 svgShape"></path></g></svg></g></svg>